<svg width="40" height="40" viewBox="0 0 40 40" fill="none" xmlns="http://www.w3.org/2000/svg">
<path d="M14.6857 35.4078L19.9987 30.0947M19.9987 30.0947L25.3117 35.4078M19.9987 30.0947V9.9053M25.3117 4.59229L19.9987 9.9053M19.9987 9.9053L14.6857 4.59229M4 23.1027L11.2577 25.0474M11.2577 25.0474L9.31301 32.3051M11.2577 25.0474L28.7423 14.9527M36 16.8974L28.7423 14.9527M28.7423 14.9527L30.687 7.695M9.31302 7.695L11.2577 14.9527M11.2577 14.9527L4 16.8974M11.2577 14.9527L28.7423 25.0474M30.687 32.3051L28.7423 25.0474M28.7423 25.0474L36 23.1027" stroke="black" stroke-width="2" stroke-linecap="round" stroke-linejoin="round"/>
</svg>
